<?xml version="1.0" standalone="no"?>
<!DOCTYPE svg PUBLIC "-//W3C//DTD SVG 20010904//EN"
 "http://www.w3.org/TR/2001/REC-SVG-20010904/DTD/svg10.dtd">
<svg version="1.0" xmlns="http://www.w3.org/2000/svg"
 width="500.000000pt" height="500.000000pt" viewBox="0 0 500.000000 500.000000"
 preserveAspectRatio="xMidYMid meet">
<metadata>
Created by potrace 1.16, written by Peter Selinger 2001-2019
</metadata>
<g transform="translate(0.000000,500.000000) scale(0.212766,-0.212766)"
fill="#000000" stroke="none">
<path d="M1103 2193 c-4 -9 -1 -19 5 -21 7 -2 12 -8 12 -14 0 -6 -8 -4 -17 4
-10 8 -26 15 -36 15 -23 0 -147 -103 -147 -122 0 -8 -3 -15 -8 -15 -4 0 -22
-29 -40 -65 -19 -36 -38 -65 -42 -65 -5 0 -7 -7 -3 -16 3 -8 -4 -29 -17 -46
-27 -36 -10 -28 43 22 63 57 74 57 19 -1 -102 -108 -112 -122 -99 -139 6 -8 7
-12 2 -7 -5 4 -19 -13 -31 -39 -12 -25 -36 -54 -53 -65 -21 -13 -28 -14 -25
-5 3 8 0 17 -7 22 -8 4 -10 3 -5 -4 4 -7 1 -12 -9 -12 -10 0 -13 -5 -9 -12 4
-6 3 -8 -3 -5 -16 10 -61 -30 -46 -40 8 -6 8 -18 -2 -47 -15 -42 -11 -66 10
-66 22 0 26 -34 11 -76 -23 -65 -56 -130 -56 -114 -1 8 -8 -5 -17 -30 -8 -25
-22 -53 -30 -62 -8 -9 -13 -21 -10 -26 3 -4 -5 -39 -19 -76 -30 -84 -30 -127
1 -164 11 -12 44 24 55 60 8 24 17 45 21 48 7 6 59 117 79 170 8 19 16 37 20
40 11 10 80 160 80 174 0 8 4 17 9 21 5 3 12 18 16 35 3 16 15 40 25 53 10 13
22 37 26 53 9 37 52 123 72 147 8 9 12 20 9 24 -4 3 4 27 17 52 13 25 32 64
42 86 11 22 23 43 28 46 5 4 5 12 2 18 -4 6 -1 14 7 17 8 3 18 19 21 37 7 36
66 94 105 104 14 3 31 9 37 14 29 23 182 -62 184 -103 0 -3 16 -34 34 -67 19
-34 32 -61 29 -61 -3 0 0 -7 7 -15 7 -8 10 -15 7 -15 -4 0 14 -39 39 -87 44
-86 49 -113 19 -113 -8 0 -15 -5 -15 -11 0 -5 6 -7 13 -3 6 4 3 -2 -7 -14 -11
-12 -14 -22 -8 -22 18 0 14 -20 -8 -44 -56 -60 -77 -85 -74 -89 5 -5 -65 -62
-111 -92 -42 -27 -138 -26 -183 2 -18 11 -34 25 -35 29 0 5 -17 16 -37 25 -19
9 -41 23 -49 32 -7 10 -19 17 -27 17 -16 0 -27 31 -18 54 3 9 1 16 -5 16 -6 0
-11 -6 -11 -14 0 -8 -7 -16 -15 -20 -8 -3 -15 -12 -15 -21 0 -8 -6 -25 -12
-36 -10 -17 -10 -23 0 -26 6 -3 12 -9 12 -14 0 -10 88 -98 120 -119 13 -8 36
-26 52 -39 27 -22 40 -25 132 -25 138 -1 166 14 322 171 66 68 126 123 132
123 7 0 12 4 12 8 0 17 86 45 149 50 47 3 77 0 105 -12 21 -9 45 -16 53 -16
22 0 124 -100 141 -140 22 -49 23 -56 29 -138 5 -75 -3 -112 -39 -164 -11 -16
-15 -28 -10 -28 5 0 15 -19 22 -42 16 -54 53 -128 63 -128 17 0 107 108 107
129 0 6 11 34 24 63 22 48 24 64 21 165 -3 109 -4 112 -44 183 -23 39 -41 75
-41 79 0 13 -90 91 -105 91 -8 0 -15 5 -15 11 0 6 -7 8 -16 5 -17 -6 -57 16
-49 27 3 4 2 5 -2 2 -3 -3 -12 0 -19 6 -9 7 -19 7 -32 0 -15 -8 -21 -7 -26 4
-4 12 -29 15 -130 15 -69 0 -127 4 -130 9 -6 10 -66 21 -63 12 2 -5 -7 -11
-17 -11 -1 0 1 23 5 51 9 54 7 58 -61 204 -16 33 -32 70 -35 83 -5 19 -9 21
-21 11 -8 -6 -17 -9 -21 -5 -3 3 -1 6 6 6 7 0 9 5 6 10 -3 6 -1 10 5 10 6 0 3
11 -7 26 l-17 26 -17 -20 -16 -21 -24 25 c-26 28 -115 74 -151 78 -13 1 -29 5
-34 9 -6 3 -26 -5 -44 -18 -43 -32 -46 -31 -20 2 21 28 11 48 -13 24 -14 -14
-40 -15 -32 -1 3 6 4 10 0 10 -3 0 -9 -8 -12 -17z"/>
<path d="M446 1621 c-3 -4 -18 -11 -34 -14 -15 -3 -51 -21 -79 -41 -28 -19
-54 -33 -57 -30 -3 2 -4 1 -1 -2 2 -4 -6 -19 -18 -34 -47 -59 -57 -75 -57 -87
0 -7 -4 -13 -9 -13 -13 0 -18 -39 -10 -75 4 -16 10 -43 14 -59 6 -29 6 -29 25
-8 12 12 17 28 13 41 -3 13 -1 21 6 21 7 0 9 4 6 10 -6 10 17 60 43 91 40 48
62 69 72 69 5 0 10 4 10 10 0 5 11 12 25 16 14 3 23 10 20 15 -3 4 22 11 55
15 33 4 60 11 60 15 0 5 6 9 13 9 14 0 57 41 57 53 0 10 -148 8 -154 -2z"/>
<path d="M1691 1479 c-20 -10 -48 -28 -63 -42 l-28 -24 21 -44 c11 -24 29 -61
39 -82 11 -22 20 -44 20 -50 0 -7 9 -23 20 -37 11 -14 20 -32 20 -40 0 -8 20
-56 45 -105 25 -50 45 -95 45 -102 0 -6 6 -18 14 -25 26 -27 28 -55 5 -77 -13
-12 -19 -21 -14 -21 5 0 -3 -13 -18 -28 -17 -18 -25 -35 -22 -44 4 -11 -1 -18
-14 -23 -11 -3 -23 -15 -26 -26 -4 -11 -11 -16 -17 -13 -7 5 -9 1 -5 -9 3 -10
3 -17 -2 -17 -4 0 -13 -11 -19 -25 -12 -26 -65 -59 -77 -47 -4 4 -2 -4 5 -17
7 -14 8 -21 1 -17 -5 4 -18 -6 -28 -21 -10 -15 -45 -56 -78 -90 -33 -34 -82
-86 -108 -116 -27 -31 -63 -61 -80 -68 -18 -7 -34 -16 -37 -20 -3 -4 -32 -12
-65 -17 -97 -16 -197 11 -274 73 -34 28 -166 151 -292 273 -59 57 -113 108
-121 115 -33 27 -90 108 -99 140 -8 29 -19 39 -72 65 -67 32 -147 96 -147 116
0 7 -9 21 -19 30 -11 10 -22 29 -26 43 -3 14 -13 32 -20 40 -8 8 -15 27 -15
42 0 39 -18 53 -39 32 -10 -9 -15 -23 -12 -31 4 -13 2 -13 -11 -2 -13 10 -18
10 -24 1 -4 -7 -3 -14 4 -17 6 -2 9 -9 6 -16 -3 -8 3 -16 14 -18 15 -4 18 -12
14 -38 -2 -18 -1 -35 4 -39 5 -3 18 -23 29 -43 11 -21 34 -52 52 -69 18 -17
33 -35 33 -40 0 -5 4 -9 9 -9 5 0 46 -39 92 -87 46 -48 96 -99 112 -114 15
-15 27 -32 27 -38 0 -6 5 -11 10 -11 13 0 190 -179 190 -191 0 -5 4 -9 10 -9
5 0 62 -54 127 -120 84 -86 132 -127 170 -145 30 -14 60 -25 67 -25 7 0 19 -7
26 -15 10 -12 37 -15 121 -15 105 0 110 1 191 39 68 33 100 57 181 135 53 53
97 98 97 100 0 3 57 63 128 135 70 71 133 136 140 145 16 20 32 21 32 1 0 -8
5 -15 10 -15 6 0 10 -7 10 -15 0 -8 11 -36 24 -63 46 -90 86 -180 86 -191 0
-6 4 -11 10 -11 5 0 9 -4 7 -10 -1 -5 18 -52 43 -104 30 -63 52 -96 65 -100
38 -11 83 -6 114 12 28 15 31 21 31 69 0 28 -3 53 -7 55 -12 5 -43 64 -43 82
0 9 -4 16 -9 16 -9 0 -24 38 -22 53 1 4 -8 17 -19 29 -11 12 -20 29 -20 37 0
9 -9 31 -20 48 -11 18 -22 45 -25 60 -2 15 -9 29 -15 31 -5 2 -10 8 -10 14 0
9 -58 139 -85 189 -8 14 -12 29 -8 33 3 3 1 6 -5 6 -6 0 -14 15 -17 33 -4 17
-11 34 -15 37 -8 6 -120 235 -120 247 0 4 -14 34 -30 66 -17 31 -27 57 -23 57
4 0 4 4 -2 8 -13 9 -45 79 -45 98 0 8 -7 17 -15 20 -8 4 -15 14 -15 24 0 23
-28 22 -79 -1z"/>
<path d="M254 663 c6 -27 3 -37 -17 -57 -14 -14 -22 -28 -18 -32 3 -4 1 -4 -6
0 -6 3 -15 1 -19 -5 -4 -8 -9 -7 -15 2 -6 9 -7 2 -4 -19 3 -18 1 -42 -5 -53
-6 -11 -20 -52 -30 -92 -16 -62 -25 -77 -62 -110 -64 -55 -65 -56 -73 -49 -14
13 6 -43 24 -68 14 -20 28 -26 65 -28 26 -2 54 2 62 8 16 14 44 68 44 85 0 7
13 32 30 56 16 24 30 51 30 59 0 9 18 50 39 92 22 42 37 78 35 81 -3 2 2 10
11 17 19 16 19 30 0 30 -8 0 -12 6 -10 13 5 12 -30 56 -69 87 -18 14 -18 13
-12 -17z"/>
</g>
</svg>
